<svg width="113" height="26" viewBox="0 0 113 26" fill="none" xmlns="http://www.w3.org/2000/svg">
  <path d="M17.0068 25.0533V0.234375H19.8342V22.5846H33.6178V25.0533H17.0068Z" fill="#001240" />
  <path
    d="M96.5752 25.0513V7.10938H99.005L99.4909 11.5618H99.5793C99.6087 11.4148 99.7413 11.1063 99.9769 10.636C100.213 10.1658 100.566 9.6662 101.037 9.1372C101.538 8.57881 102.186 8.10859 102.981 7.72654C103.776 7.31509 104.792 7.10938 106.029 7.10938C107.59 7.10938 108.813 7.38857 109.696 7.94695C110.609 8.50534 111.286 9.25476 111.728 10.1952C112.17 11.1063 112.45 12.0908 112.568 13.1488C112.685 14.2068 112.744 15.2207 112.744 16.1905V25.0513H110.005V16.1905C110.005 14.2509 109.667 12.6786 108.989 11.4736C108.341 10.2687 107.045 9.6662 105.102 9.6662C103.776 9.6662 102.686 9.98948 101.832 10.636C101.008 11.2532 100.404 12.0908 100.021 13.1488C99.6677 14.1774 99.4909 15.3089 99.4909 16.5432V25.0513H96.5752Z"
    fill="#001240" />
  <path
    d="M85.9926 25.7315C84.0194 25.7315 82.3848 25.2907 81.0889 24.409C79.8224 23.4979 78.88 22.3371 78.2615 20.9264C77.6725 19.4864 77.3779 18.0022 77.3779 16.474C77.3779 14.7988 77.7019 13.2706 78.3498 11.8893C79.0272 10.4787 79.9992 9.36191 81.2656 8.53902C82.5615 7.71613 84.1077 7.30469 85.9043 7.30469C88.2015 7.30469 90.1159 8.0541 91.6474 9.55293C93.1789 11.0224 94.0036 13.0061 94.1214 15.5042C94.1509 15.6217 94.1656 15.7981 94.1656 16.0332C94.1656 16.2389 94.1656 16.4299 94.1656 16.6063H80.117C80.117 18.6929 80.6176 20.3386 81.619 21.5436C82.6498 22.7191 84.093 23.3069 85.9485 23.3069C87.3327 23.3069 88.5108 22.9542 89.4827 22.2489C90.4841 21.5436 91.1026 20.5884 91.3382 19.3835H94.1214C93.8269 21.2056 92.958 22.7191 91.5149 23.9241C90.0717 25.129 88.231 25.7315 85.9926 25.7315ZM80.2053 15.0633H91.2498C91.2498 14.4462 91.0731 13.7115 90.7197 12.8592C90.3957 12.0069 89.8361 11.2722 89.0409 10.655C88.2752 10.0085 87.2149 9.68518 85.8601 9.68518C84.6231 9.68518 83.607 9.94968 82.8118 10.4787C82.0166 11.0077 81.4129 11.6836 81.0005 12.5065C80.5882 13.3294 80.3231 14.1817 80.2053 15.0633Z"
    fill="#001240" />
  <path
    d="M49.4961 25.0513V7.10938H51.9259L52.1026 11.5618H52.1909C52.2499 11.3561 52.3824 11.0181 52.5886 10.5479C52.7947 10.0483 53.1187 9.53395 53.5605 9.00495C54.0022 8.47595 54.5766 8.03512 55.2834 7.68246C55.9903 7.3004 56.8885 7.10938 57.9783 7.10938C59.6276 7.10938 60.8351 7.5649 61.6009 8.47596C62.3961 9.38701 62.9262 10.4156 63.1913 11.5618H63.2796C63.368 11.3561 63.53 11.0181 63.7656 10.5479C64.0012 10.0483 64.3546 9.53395 64.8259 9.00495C65.2971 8.47595 65.9009 8.03512 66.6372 7.68246C67.4029 7.3004 68.3307 7.10938 69.4204 7.10938C70.569 7.10938 71.5115 7.34448 72.2478 7.8147C72.9841 8.25554 73.5437 8.85801 73.9265 9.62212C74.3389 10.3568 74.6334 11.1356 74.8101 11.9585C74.9868 12.7814 75.0899 13.5749 75.1193 14.339C75.1488 15.1031 75.1635 15.7203 75.1635 16.1905V25.0513H72.6896V16.1905C72.6896 15.7203 72.6601 15.1178 72.6012 14.3831C72.5423 13.6484 72.395 12.9284 72.1594 12.223C71.9238 11.4883 71.5115 10.8858 70.9224 10.4156C70.3628 9.91601 69.5529 9.6662 68.4926 9.6662C67.3146 9.6662 66.3721 9.98948 65.6652 10.636C64.9584 11.2826 64.443 12.1349 64.119 13.1929C63.795 14.2215 63.6331 15.3382 63.6331 16.5432V25.0513H61.1591V16.1905C61.1591 15.7203 61.1296 15.1178 61.0707 14.3831C61.0118 13.6484 60.8646 12.9284 60.629 12.223C60.3933 11.4883 59.981 10.8858 59.392 10.4156C58.8324 9.91601 58.0224 9.6662 56.9622 9.6662C55.7841 9.6662 54.8416 9.98948 54.1348 10.636C53.4279 11.2826 52.9125 12.1349 52.5886 13.1929C52.2646 14.2215 52.1026 15.3382 52.1026 16.5432V25.0513H49.4961Z"
    fill="#001240" />
  <path
    d="M42.7556 25.4921C41.283 25.4921 40.0902 25.2276 39.1771 24.6986C38.2936 24.1696 37.6162 23.4643 37.145 22.5826C36.6737 21.6715 36.3498 20.687 36.173 19.629C36.0258 18.5416 35.9521 17.4542 35.9521 16.3669V7.10938H38.7795V16.4109C38.7795 17.5865 38.8974 18.6739 39.133 19.6731C39.3686 20.6723 39.8398 21.4658 40.5467 22.0536C41.283 22.6414 42.3432 22.9353 43.7275 22.9353C45.0528 22.9353 46.0836 22.6414 46.8199 22.0536C47.5857 21.4364 48.1453 20.6429 48.4987 19.6731C48.8521 18.7033 49.0583 17.6894 49.1172 16.6314V7.10938H52.033V25.0513H49.6032L49.1172 21.0397H49.0288C48.8816 21.5393 48.5723 22.1418 48.1011 22.8471C47.6299 23.5524 46.9525 24.1696 46.0689 24.6986C45.2148 25.2276 44.1104 25.4921 42.7556 25.4921Z"
    fill="#001240" />
  <path fill-rule="evenodd" clip-rule="evenodd"
    d="M0.525061 18.791L8.56827 23.2431L0 23.2431L2.28882e-06 25.7691L10.8294 25.7691C10.6873 25.4181 10.6091 25.0344 10.6091 24.6324C10.6091 22.9583 11.9662 21.6012 13.6403 21.6012C13.9955 21.6012 14.3365 21.6624 14.6533 21.7746L14.6533 10.2344L12.1273 10.2344L12.1273 19.6566L7.40829 11.4966L5.22164 12.7611L10.1061 21.2072L1.74836 16.581L0.525061 18.791Z"
    fill="#0332DB" />
</svg>