<svg width="452" height="103" viewBox="0 0 452 103" fill="none" xmlns="http://www.w3.org/2000/svg">
  <path d="M68.5386 99.2774V0H79.8484V89.4025H134.984V99.2774H68.5386Z" fill="#001240" />
  <path
    d="M386.817 99.2777V27.5088H396.536L398.48 45.3187H398.834C398.951 44.731 399.481 43.4966 400.424 41.6157C401.366 39.7348 402.78 37.7363 404.665 35.6202C406.668 33.3867 409.26 31.5057 412.441 29.9775C415.622 28.3317 419.686 27.5088 424.634 27.5088C430.878 27.5088 435.767 28.6256 439.301 30.8592C442.953 33.0928 445.663 36.0905 447.43 39.8523C449.197 43.4966 450.317 47.4348 450.788 51.6669C451.259 55.8989 451.495 59.9547 451.495 63.8341V99.2777H440.538V63.8341C440.538 56.0753 439.184 49.7859 436.474 44.9661C433.882 40.1462 428.698 37.7363 420.923 37.7363C415.621 37.7363 411.262 39.0294 407.846 41.6157C404.547 44.0844 402.132 47.4348 400.601 51.6669C399.187 55.7814 398.48 60.3073 398.48 65.2448V99.2777H386.817Z"
    fill="#001240" />
  <path
    d="M344.486 101.999C336.593 101.999 330.054 100.236 324.87 96.7093C319.805 93.065 316.035 88.4215 313.561 82.7787C311.204 77.0184 310.026 71.0817 310.026 64.9687C310.026 58.268 311.322 52.155 313.914 46.6298C316.624 40.987 320.511 36.5198 325.577 33.2282C330.761 29.9366 336.946 28.2908 344.132 28.2908C353.322 28.2908 360.979 31.2885 367.105 37.2839C373.232 43.1618 376.53 51.0969 377.001 61.0893C377.119 61.5596 377.178 62.2649 377.178 63.2054C377.178 64.0283 377.178 64.7924 377.178 65.4977H320.983C320.983 73.8443 322.985 80.4275 326.991 85.2474C331.114 89.9497 336.887 92.3009 344.309 92.3009C349.846 92.3009 354.559 90.8902 358.446 88.0688C362.452 85.2474 364.926 81.4268 365.868 76.6069H377.001C375.823 83.8955 372.348 89.9497 366.575 94.7696C360.803 99.5894 353.439 101.999 344.486 101.999ZM321.336 59.326H365.515C365.515 56.8573 364.808 53.9183 363.394 50.5092C362.099 47.1 359.86 44.161 356.679 41.6923C353.616 39.1061 349.375 37.8129 343.956 37.8129C339.008 37.8129 334.943 38.8709 331.762 40.987C328.581 43.103 326.166 45.8069 324.517 49.0985C322.868 52.3901 321.807 55.7992 321.336 59.326Z"
    fill="#001240" />
  <path
    d="M198.499 99.2777V27.5088H208.218L208.925 45.3187H209.279C209.514 44.4958 210.044 43.1439 210.869 41.263C211.694 39.2645 212.99 37.2073 214.757 35.0912C216.524 32.9752 218.821 31.2118 221.649 29.8012C224.476 28.2729 228.069 27.5088 232.428 27.5088C239.026 27.5088 243.856 29.3309 246.919 32.9752C250.1 36.6195 252.221 40.734 253.281 45.3187H253.634C253.988 44.4958 254.636 43.1439 255.578 41.263C256.521 39.2645 257.934 37.2073 259.819 35.0912C261.704 32.9752 264.119 31.2118 267.065 29.8012C270.128 28.2729 273.839 27.5088 278.198 27.5088C282.792 27.5088 286.562 28.4492 289.507 30.3302C292.453 32.0935 294.691 34.5035 296.223 37.56C297.872 40.4989 299.05 43.6142 299.757 46.9058C300.464 50.1974 300.876 53.3714 300.994 56.4279C301.112 59.4844 301.171 61.9532 301.171 63.8341V99.2777H291.275V63.8341C291.275 61.9532 291.157 59.5432 290.921 56.6043C290.686 53.6653 290.097 50.7852 289.154 47.9638C288.212 45.0249 286.562 42.6149 284.206 40.734C281.968 38.7355 278.728 37.7363 274.487 37.7363C269.774 37.7363 266.004 39.0294 263.177 41.6157C260.349 44.202 258.288 47.6111 256.992 51.8432C255.696 55.9577 255.048 60.4249 255.048 65.2448V99.2777H245.152V63.8341C245.152 61.9532 245.034 59.5432 244.798 56.6043C244.563 53.6653 243.974 50.7852 243.031 47.9638C242.089 45.0249 240.439 42.6149 238.083 40.734C235.845 38.7355 232.605 37.7363 228.364 37.7363C223.652 37.7363 219.882 39.0294 217.054 41.6157C214.227 44.202 212.165 47.6111 210.869 51.8432C209.573 55.9577 208.925 60.4249 208.925 65.2448V99.2777H198.499Z"
    fill="#001240" />
  <path
    d="M171.534 101.041C165.643 101.041 160.872 99.983 157.22 97.867C153.686 95.751 150.976 92.9296 149.091 89.4028C147.206 85.7586 145.91 81.8204 145.203 77.5883C144.614 73.2387 144.32 68.889 144.32 64.5394V27.5088H155.63V64.7158C155.63 69.4181 156.101 73.7677 157.043 77.7646C157.986 81.7616 159.871 84.9356 162.698 87.2868C165.643 89.638 169.885 90.8135 175.422 90.8135C180.723 90.8135 184.847 89.638 187.792 87.2868C190.855 84.8181 193.093 81.644 194.507 77.7646C195.921 73.8852 196.745 69.8295 196.981 65.5974V27.5088H208.644V99.2777H198.925L196.981 83.2311H196.628C196.039 85.2295 194.802 87.6395 192.917 90.4609C191.032 93.2822 188.322 95.751 184.788 97.867C181.371 99.983 176.953 101.041 171.534 101.041Z"
    fill="#001240" />
  <path fill-rule="evenodd" clip-rule="evenodd"
    d="M2.60565 74.2271L34.7791 92.0359L0.505371 92.036L0.50538 102.14L43.8239 102.14C43.2555 100.736 42.9426 99.2011 42.9426 97.5932C42.9426 90.8968 48.3711 85.4683 55.0675 85.4683C56.4885 85.4683 57.8525 85.7128 59.1195 86.162L59.1196 40L49.0155 40L49.0155 77.6895L30.1391 45.0489L21.3923 50.1072L40.9305 83.8922L7.49893 65.3869L2.60565 74.2271Z"
    fill="#0332DB" />
</svg>